<svg xmlns="http://www.w3.org/2000/svg" viewBox="0 0 300 180">
<title>Africa &amp; Middle East</title>
<rect width="300" height="180" rx="6" fill="#14232e"/>
<path d="M78.96,38.70L79.46,39.58L78.66,40.02L77.35,42.17L77.59,43.31L79.10,43.08L79.89,41.98L79.77,41.46L81.09,41.17L83.21,41.50L83.88,41.03L85.16,40.97L85.11,39.84L85.39,39.84L85.39,40.62L91.65,44.31L97.22,40.79L95.61,37.96L97.55,38.53L99.49,37.52L101.39,37.22L102.97,35.52L104.21,33.52L102.55,32.02L103.35,30.00L103.56,26.58L103.09,26.50L102.65,26.85L102.37,26.36L103.27,25.46L102.62,24.89L102.99,24.01L102.25,23.75L103.14,22.98L103.70,23.19L104.16,22.98L104.91,21.83L104.09,22.10L103.30,22.92L102.66,22.72L101.67,23.01L100.49,23.97L99.13,24.45L97.44,24.11L97.53,24.35L97.23,23.68L96.50,24.19L95.77,24.01L94.31,24.29L92.88,23.74L92.19,22.69L91.14,22.95L89.24,26.60L85.71,28.20L84.19,29.64L84.12,30.48L82.97,32.08L82.89,33.64L83.46,34.15L83.24,34.99L81.72,36.87L78.96,38.70Z" fill="#8eb4a4" fill-rule="evenodd" stroke="#253d3d" stroke-width=".45" stroke-linejoin="round"/>
<path d="M106.90,21.40L105.32,21.61L104.16,22.98L103.70,23.19L103.14,22.98L102.25,23.75L102.99,24.01L102.62,24.89L103.27,25.46L102.37,26.36L102.65,26.85L103.09,26.50L103.56,26.58L103.35,30.00L102.55,32.02L104.21,33.52L102.97,35.52L101.39,37.22L99.49,37.52L97.55,38.53L95.61,37.96L97.22,40.79L91.65,44.31L105.75,53.46L105.80,54.22L106.74,54.60L107.06,55.12L107.90,55.17L108.35,55.63L110.04,56.17L110.11,57.06L109.81,57.50L110.34,57.87L115.47,56.83L118.88,53.94L128.18,48.45L127.23,46.79L124.64,46.25L124.17,45.67L124.12,44.68L122.81,42.94L123.80,42.20L123.91,41.54L123.52,40.61L123.97,39.42L123.64,38.58L123.74,36.80L122.62,34.74L123.10,34.51L122.16,30.84L117.95,30.73L116.60,28.10L113.76,27.84L113.99,27.57L112.37,26.73L111.47,25.10L110.86,24.87L110.58,24.28L111.00,23.58L110.38,23.05L109.76,23.21L109.51,22.94L108.95,23.67L108.11,23.70L107.85,23.16L108.17,22.81L107.22,22.82L106.70,22.28L106.61,21.74L106.90,21.40Z" fill="#c5ad7e" fill-rule="evenodd" stroke="#253d3d" stroke-width=".45" stroke-linejoin="round"/>
<path d="M106.90,21.40L106.61,21.74L106.70,22.28L107.22,22.82L108.17,22.81L107.85,23.16L108.11,23.70L108.95,23.67L109.51,22.94L109.76,23.21L110.38,23.05L111.00,23.58L110.58,24.28L110.86,24.87L111.47,25.10L112.37,26.73L113.99,27.57L113.76,27.84L116.60,28.10L117.95,30.73L122.16,30.84L123.10,34.51L122.62,34.74L123.41,35.80L123.74,37.85L124.38,37.65L125.01,37.84L125.98,37.39L126.20,37.81L126.84,38.01L128.03,38.04L128.21,37.80L129.67,38.25L132.02,35.93L132.76,36.09L133.26,36.63L133.95,36.22L133.91,35.64L134.42,34.95L134.36,34.14L132.83,33.49L131.14,30.73L132.64,30.54L133.77,30.90L133.95,29.90L131.04,28.96L128.97,29.11L126.54,28.32L126.45,28.11L126.78,28.16L126.30,27.50L125.59,27.76L125.58,27.29L124.78,27.30L124.20,26.72L124.36,26.01L125.34,25.55L126.50,24.11L126.29,23.33L125.09,22.37L125.17,21.83L125.76,21.59L126.45,20.72L126.28,20.29L124.84,21.01L124.49,20.88L124.82,20.70L124.36,20.13L124.66,20.08L123.86,19.91L123.70,20.13L123.81,19.77L123.57,19.74L120.99,20.65L119.77,20.77L119.54,20.47L118.26,20.28L118.38,20.51L117.70,20.68L116.77,20.26L114.37,21.20L113.30,20.67L111.31,20.64L109.46,20.85L108.83,21.28L106.90,21.40ZM126.79,25.17L126.53,25.11L126.44,25.31L126.79,25.17ZM126.29,25.39L126.14,25.29L126.10,25.32L126.29,25.39ZM125.70,26.90L125.63,27.27L125.95,27.39L126.30,27.10L125.70,26.90Z" fill="#d6bb78" fill-rule="evenodd" stroke="#253d3d" stroke-width=".45" stroke-linejoin="round"/>
<path d="M133.95,29.90L133.77,30.90L132.64,30.54L131.14,30.73L132.83,33.49L134.36,34.14L134.42,34.95L133.91,35.64L133.86,36.32L133.26,36.63L132.76,36.09L132.02,35.93L129.67,38.25L128.21,37.80L128.03,38.04L126.84,38.01L126.20,37.81L125.98,37.39L125.01,37.84L124.38,37.65L123.74,37.85L123.96,39.50L123.52,40.61L123.88,41.94L122.81,42.94L124.12,44.68L124.19,45.72L124.91,46.45L125.59,46.30L127.23,46.79L128.18,48.45L131.31,49.15L132.81,50.30L136.50,48.60L153.07,56.79L153.07,55.76L155.11,55.76L155.14,38.94L151.16,38.85L150.95,32.43L151.56,30.39L151.20,30.10L151.29,29.56L149.27,28.87L148.38,28.86L145.99,29.68L144.70,30.92L145.12,32.46L144.90,33.29L144.02,34.11L143.05,34.44L139.36,32.73L136.04,32.11L135.48,31.53L135.05,30.18L133.95,29.90Z" fill="#c5ad7e" fill-rule="evenodd" stroke="#253d3d" stroke-width=".45" stroke-linejoin="round"/>
<path d="M151.56,30.39L150.95,32.43L151.16,38.85L155.14,38.94L155.14,39.83L166.97,39.83L167.14,40.47L168.23,41.55L168.55,41.34L168.90,41.56L167.49,40.17L167.23,38.60L167.52,37.55L168.14,36.44L169.50,37.16L171.04,36.81L170.38,35.82L170.75,35.07L171.18,36.09L172.04,36.99L172.37,38.10L173.99,39.55L174.35,39.70L174.71,39.17L174.67,38.50L175.66,36.05L173.35,35.35L171.46,35.17L170.93,32.78L170.37,32.35L169.87,32.75L169.34,32.39L169.46,31.81L169.67,32.09L170.10,32.30L169.57,31.83L169.42,31.80L168.70,31.98L167.81,31.65L167.82,31.89L167.06,32.11L166.66,32.09L167.56,31.69L166.29,31.86L166.00,32.45L165.68,32.22L163.53,33.27L159.25,31.98L157.18,31.63L155.58,31.81L155.14,30.90L151.56,30.39ZM171.92,32.46L172.07,32.43L171.97,32.41L171.92,32.46ZM171.72,32.72L171.71,32.73L171.73,32.76L171.72,32.72Z" fill="#d6bb78" fill-rule="evenodd" stroke="#253d3d" stroke-width=".45" stroke-linejoin="round"/>
<path d="M175.11,39.30L174.90,39.10L174.86,39.23L175.11,39.30ZM175.24,39.22L175.29,39.33L175.35,39.23L175.24,39.22ZM173.89,40.17L173.65,40.13L173.94,40.28L173.89,40.17ZM173.78,41.65L173.74,41.65L173.81,41.80L173.78,41.65ZM155.14,39.83L155.14,51.60L168.13,51.61L168.45,51.13L168.51,51.60L179.80,51.60L177.34,49.66L176.88,47.86L176.97,47.49L177.46,47.51L176.20,46.40L173.71,41.93L173.81,41.41L172.79,39.87L172.95,39.45L171.49,37.94L171.04,36.81L169.50,37.16L168.14,36.44L167.52,37.55L167.23,38.60L167.49,40.17L168.90,41.56L168.55,41.34L168.23,41.55L167.14,40.47L166.97,39.83L155.14,39.83Z" fill="#c5ad7e" fill-rule="evenodd" stroke="#253d3d" stroke-width=".45" stroke-linejoin="round"/>
<path d="M179.80,51.60L168.51,51.60L168.45,51.13L168.13,51.61L155.14,51.60L155.14,55.73L160.32,55.75L160.35,62.64L159.15,62.71L159.59,66.38L160.41,69.02L159.37,71.48L159.79,73.55L160.66,73.59L161.53,72.42L162.70,72.40L163.22,71.36L164.50,71.77L165.37,70.83L165.71,71.32L166.40,71.32L167.06,71.78L167.85,71.08L168.64,70.91L169.04,71.12L169.17,71.89L169.86,72.35L171.23,72.35L171.20,71.91L172.81,71.87L174.58,70.84L176.35,72.57L177.35,70.97L176.38,70.69L174.55,69.33L174.46,68.76L174.12,68.70L173.64,67.87L174.33,66.50L173.88,65.77L172.88,65.23L172.99,65.03L173.41,64.66L174.58,64.93L174.24,64.01L174.84,63.18L177.05,62.88L177.26,61.61L178.09,62.00L180.88,61.91L181.10,61.31L182.64,60.85L183.36,59.89L180.95,58.11L180.30,53.21L180.68,53.52L179.81,52.32L179.80,51.60Z" fill="#c5ad7e" fill-rule="evenodd" stroke="#253d3d" stroke-width=".45" stroke-linejoin="round"/>
<path d="M69.79,57.83L75.94,57.82L77.13,58.74L74.92,60.31L73.71,61.79L72.44,62.71L73.66,62.73L74.76,63.80L76.06,63.19L76.85,62.34L76.93,63.10L77.62,63.13L77.63,63.62L78.02,63.59L78.65,64.25L78.88,63.97L79.55,64.11L79.13,65.01L79.64,64.81L80.76,65.91L81.19,65.23L83.85,65.21L83.95,64.70L84.01,65.10L91.96,65.10L92.29,63.40L91.73,62.95L89.72,45.38L93.39,45.38L85.39,40.62L85.39,39.84L85.11,39.84L85.16,40.97L83.88,41.03L83.21,41.50L81.09,41.17L79.77,41.46L79.89,41.98L79.10,43.08L77.59,43.31L77.35,42.17L78.44,40.30L79.44,39.48L78.96,38.70L76.51,39.32L75.28,41.74L73.40,42.89L72.49,46.02L70.35,47.91L70.20,48.16L70.71,47.74L69.26,50.81L68.32,51.74L67.95,54.01L68.32,53.34L68.85,54.35L69.10,54.58L69.13,54.21L69.38,54.35L69.81,55.30L69.74,56.18L69.26,56.86L69.56,56.87L69.14,57.00L69.79,57.83ZM69.30,54.55L69.30,54.49L69.24,54.51L69.30,54.55ZM69.53,56.05L69.26,56.40L69.33,56.57L69.53,56.05ZM69.22,56.42L69.25,56.31L69.20,56.36L69.22,56.42ZM69.41,56.58L69.60,56.32L69.56,56.31L69.41,56.58Z" fill="#c5ad7e" fill-rule="evenodd" stroke="#253d3d" stroke-width=".45" stroke-linejoin="round"/>
<path d="M73.01,75.51L73.94,75.22L74.85,74.27L74.27,73.32L74.64,72.89L74.93,72.96L74.94,72.35L74.49,71.90L75.57,71.71L75.89,72.29L76.40,72.32L77.39,71.57L79.78,71.52L79.75,70.30L79.32,69.53L78.87,69.64L78.31,68.82L78.59,68.56L78.52,67.86L78.05,67.39L77.97,66.59L78.89,66.33L78.89,65.51L79.55,64.11L78.88,63.97L78.65,64.25L78.02,63.59L77.63,63.62L77.62,63.13L76.93,63.10L76.85,62.34L76.06,63.19L74.76,63.80L73.66,62.73L72.44,62.71L73.71,61.79L74.92,60.31L77.13,58.74L75.94,57.82L69.79,57.83L70.12,60.59L69.27,62.71L69.11,64.52L67.87,66.28L67.04,66.63L67.78,66.85L68.62,68.54L68.64,68.26L68.73,68.17L69.34,67.87L68.68,68.30L68.77,68.68L69.22,68.20L68.91,68.87L69.17,68.85L69.14,69.53L69.64,69.53L69.93,69.33L71.14,69.18L71.61,69.33L69.89,69.39L69.75,69.75L69.09,69.68L68.82,69.25L68.51,69.58L68.62,71.14L69.00,70.77L69.46,71.18L69.51,71.11L70.12,70.99L70.18,70.84L71.00,71.18L71.15,70.74L71.36,70.63L71.08,71.20L69.42,71.21L69.02,71.04L68.57,71.46L69.28,72.00L69.92,71.75L69.48,72.14L69.78,72.53L70.51,72.29L70.83,72.34L70.31,72.90L70.62,72.62L70.58,72.88L71.41,72.44L72.28,72.40L72.40,72.85L72.11,72.48L71.22,72.78L71.37,73.26L71.83,72.86L72.28,73.16L71.69,73.17L71.25,73.69L71.74,73.53L71.45,74.04L71.85,74.00L71.82,74.44L72.27,73.96L72.23,74.86L72.52,74.37L72.95,74.30L72.73,74.96L72.99,74.81L72.92,75.17L73.29,74.74L73.01,75.51ZM69.88,72.62L70.16,72.83L70.24,72.56L69.88,72.62ZM69.65,73.40L69.42,73.29L69.36,73.42L69.65,73.40ZM70.05,73.46L70.44,73.49L70.32,73.17L70.05,73.46ZM69.76,73.52L69.73,73.38L69.60,73.49L69.76,73.52ZM69.87,73.97L69.71,73.82L69.64,73.95L69.87,73.97ZM70.11,74.09L70.19,74.29L70.26,74.00L70.11,74.09ZM70.06,74.00L69.71,74.21L69.78,74.32L70.07,74.36L70.06,74.00ZM70.99,73.33L71.32,73.26L71.32,73.12L71.20,73.13L70.99,73.33ZM70.77,73.50L70.93,73.48L70.92,73.37L70.77,73.50ZM70.44,73.91L70.59,73.82L70.52,73.80L70.44,73.91ZM70.80,73.81L70.78,74.06L70.93,73.80L70.80,73.81ZM70.29,74.23L70.48,74.28L70.34,74.01L70.29,74.23Z" fill="#8eb4a4" fill-rule="evenodd" stroke="#253d3d" stroke-width=".45" stroke-linejoin="round"/>
<path d="M93.39,45.38L89.72,45.38L91.73,62.95L92.29,63.40L91.96,65.10L84.44,65.10L86.49,67.19L86.47,67.54L85.57,67.36L85.12,67.60L85.05,68.27L85.34,68.51L85.84,68.36L85.84,69.47L85.56,70.68L84.64,71.43L85.10,72.33L85.05,73.06L86.02,73.67L85.39,74.53L86.16,74.43L86.19,75.39L86.82,76.17L87.80,75.56L88.89,76.20L88.93,75.82L89.56,75.75L89.56,75.15L90.07,75.35L90.44,75.01L90.57,76.06L91.79,75.56L92.67,75.90L93.09,74.66L95.23,75.08L96.84,73.70L97.75,74.05L97.72,74.46L100.40,74.38L99.98,74.14L100.84,72.70L101.94,72.65L102.51,72.26L102.11,71.30L102.95,71.19L103.20,71.88L104.37,71.29L104.88,71.65L106.08,70.61L106.69,71.06L107.75,70.89L108.03,71.47L107.63,71.64L108.33,72.57L108.27,71.90L109.27,71.53L108.83,71.28L109.02,70.40L108.64,70.28L108.58,69.88L109.22,69.73L109.96,68.62L110.70,68.54L111.29,67.65L112.15,67.08L111.42,64.66L112.05,63.19L112.14,57.53L110.23,57.86L109.81,57.50L110.11,57.06L110.04,56.17L108.35,55.63L107.90,55.17L107.06,55.12L106.74,54.60L105.80,54.22L105.75,53.46L93.39,45.38Z" fill="#9caa78" fill-rule="evenodd" stroke="#253d3d" stroke-width=".45" stroke-linejoin="round"/>
<path d="M134.42,49.53L132.87,50.31L131.31,49.15L128.18,48.45L118.88,53.94L115.47,56.83L112.14,57.53L112.05,63.19L111.42,64.66L112.96,68.78L114.82,68.45L116.58,68.98L117.69,70.26L119.59,69.56L121.36,70.44L123.25,70.69L123.95,69.98L125.50,69.50L127.08,69.52L129.22,70.15L129.99,69.26L131.57,68.82L131.25,67.29L133.15,64.57L135.44,62.15L135.98,55.95L136.45,55.08L134.83,52.62L134.42,49.53Z" fill="#c5ad7e" fill-rule="evenodd" stroke="#253d3d" stroke-width=".45" stroke-linejoin="round"/>
<path d="M134.42,49.53L134.83,52.62L136.45,55.08L135.98,55.95L135.44,62.15L133.15,64.57L131.25,67.29L131.57,68.82L132.52,70.12L132.76,71.55L133.78,72.01L133.62,73.40L132.12,74.08L131.43,75.22L131.25,76.38L132.24,76.09L132.79,76.55L133.91,76.66L133.92,77.20L134.51,77.25L134.65,77.76L135.37,78.19L136.18,77.04L136.48,77.16L136.86,76.81L136.99,76.10L137.70,75.99L138.06,76.45L139.29,76.89L139.71,75.54L140.32,75.52L142.26,76.73L144.11,75.22L144.06,74.45L142.43,73.62L142.47,73.02L143.14,73.03L143.55,72.02L144.51,72.40L145.38,72.22L147.43,73.19L149.06,73.13L149.72,74.52L150.75,74.60L151.05,75.08L151.65,74.21L152.62,73.58L153.17,71.29L154.39,70.07L155.87,70.17L157.22,71.16L156.95,71.48L157.72,72.32L159.72,72.71L159.37,71.48L160.41,69.02L159.59,66.38L159.15,62.71L160.35,62.64L160.32,55.75L153.07,55.76L153.07,56.79L136.50,48.60L134.42,49.53Z" fill="#c5ad7e" fill-rule="evenodd" stroke="#253d3d" stroke-width=".45" stroke-linejoin="round"/>
<path d="M73.26,75.45L73.41,76.04L74.11,76.17L74.05,76.39L74.37,76.09L74.25,76.45L74.69,76.80L75.03,76.69L75.01,77.05L75.28,76.95L74.94,77.53L75.22,77.40L75.60,77.99L75.82,77.84L75.84,78.65L76.47,78.88L75.94,78.94L76.09,79.57L76.17,79.29L76.70,79.24L76.20,79.68L76.37,79.88L75.85,79.62L76.11,80.30L76.50,80.13L76.80,81.08L77.27,81.31L77.54,81.10L77.55,81.57L78.12,81.52L77.46,81.92L78.85,82.42L81.08,83.97L81.02,84.20L81.84,84.44L84.51,86.82L87.12,88.02L87.18,87.68L86.59,87.12L86.75,86.65L87.62,87.27L88.01,85.58L88.68,85.45L88.91,81.55L88.40,78.85L89.40,78.34L89.43,76.83L88.98,76.60L89.74,76.03L89.56,75.75L89.00,75.78L88.79,76.22L87.80,75.56L86.82,76.17L86.19,75.39L86.16,74.43L85.39,74.53L86.02,73.67L85.05,73.06L85.10,72.33L84.64,71.43L85.56,70.68L85.85,68.57L85.74,68.30L85.57,68.54L85.05,68.27L85.12,67.60L85.57,67.36L86.53,67.50L85.04,65.52L84.01,65.10L83.95,64.70L83.85,65.21L81.19,65.23L80.76,65.91L79.64,64.81L79.08,65.00L78.89,66.33L77.97,66.59L78.05,67.39L78.52,67.86L78.59,68.56L78.31,68.82L78.87,69.64L79.32,69.53L79.75,70.30L79.78,71.52L77.39,71.57L76.40,72.32L75.89,72.29L75.57,71.71L74.49,71.90L74.94,72.35L74.93,72.96L74.64,72.89L74.27,73.32L74.85,74.27L73.94,75.22L73.26,75.45ZM77.28,81.46L76.76,81.44L76.54,81.55L77.44,81.90L77.28,81.46Z" fill="#647f65" fill-rule="evenodd" stroke="#253d3d" stroke-width=".45" stroke-linejoin="round"/>
<path d="M89.56,75.15L89.74,76.16L89.17,76.23L88.98,76.60L89.43,76.83L89.40,78.34L88.40,78.85L88.91,81.55L88.68,85.45L88.01,85.58L87.62,87.27L86.75,86.65L86.59,87.12L87.40,88.21L87.93,88.25L91.25,86.82L93.01,86.62L92.64,86.47L92.46,86.62L92.28,86.63L92.19,86.59L92.35,86.41L93.46,86.59L95.10,86.41L93.41,86.51L93.54,86.32L95.14,86.22L95.62,86.32L95.48,86.11L95.68,86.30L95.56,86.38L95.23,86.29L95.12,86.38L96.52,86.64L96.82,86.12L96.87,86.59L97.49,86.58L96.62,86.66L99.27,87.40L103.70,85.38L105.36,85.24L106.01,84.53L108.98,84.05L109.02,79.06L107.93,79.05L107.48,78.24L108.26,74.51L107.55,73.53L108.33,72.57L107.63,71.64L108.03,71.47L107.75,70.89L106.69,71.06L106.08,70.61L104.88,71.65L104.37,71.29L103.20,71.88L102.95,71.19L102.11,71.30L102.51,72.26L101.94,72.65L100.84,72.70L99.98,74.14L100.40,74.38L97.72,74.46L97.75,74.05L96.84,73.70L95.23,75.08L93.09,74.66L92.67,75.90L91.79,75.56L90.57,76.06L90.44,75.01L90.07,75.35L89.56,75.15Z" fill="#8eb4a4" fill-rule="evenodd" stroke="#253d3d" stroke-width=".45" stroke-linejoin="round"/>
<path d="M112.19,66.84L110.70,68.54L109.96,68.62L109.22,69.73L108.58,69.88L108.64,70.28L109.02,70.40L108.83,71.28L109.27,71.53L108.27,71.90L108.47,72.34L107.55,73.53L108.26,74.51L107.48,78.24L107.93,79.05L109.02,79.06L108.98,84.05L110.39,83.98L110.36,83.88L110.43,83.66L110.59,83.56L111.20,83.52L110.39,83.89L112.51,84.07L113.83,85.29L114.34,85.00L113.93,85.28L114.01,85.58L114.43,85.38L114.41,85.63L114.63,85.52L114.79,85.64L114.15,85.85L114.64,86.06L114.86,85.83L115.01,85.84L114.94,86.09L114.44,86.17L114.72,87.20L116.01,88.38L116.23,88.04L116.50,88.06L116.37,88.35L116.99,88.27L117.05,87.96L117.25,88.24L117.30,87.75L117.29,88.23L117.62,88.21L117.29,87.23L117.82,88.18L117.89,87.47L117.97,88.06L118.25,87.92L118.03,87.39L118.47,87.91L119.02,87.49L119.04,87.87L120.53,87.83L120.43,87.02L121.03,87.50L121.61,86.55L121.73,85.13L123.46,83.71L123.66,83.16L124.35,82.75L125.13,82.99L125.30,82.46L126.29,83.36L126.37,83.88L127.23,83.54L127.34,82.99L128.00,82.52L127.70,82.19L128.04,81.79L127.84,81.06L127.59,80.81L127.24,80.97L127.01,80.54L128.18,78.75L127.26,77.35L128.01,77.02L128.13,76.41L129.99,75.34L130.96,75.54L131.19,74.58L131.87,74.55L132.35,73.86L132.73,73.94L133.62,73.40L133.78,72.01L132.76,71.55L132.52,70.12L131.57,68.82L129.99,69.26L129.22,70.15L127.08,69.52L125.50,69.50L123.95,69.98L123.25,70.69L122.59,70.67L121.36,70.44L119.59,69.56L117.82,70.30L116.44,68.90L114.82,68.45L112.96,68.78L112.19,66.84ZM118.34,87.91L118.17,88.14L118.52,88.08L118.34,87.91Z" fill="#d6bb78" fill-rule="evenodd" stroke="#253d3d" stroke-width=".45" stroke-linejoin="round"/>
<path d="M121.61,86.55L121.01,87.87L121.41,87.92L121.28,87.48L121.60,87.84L121.69,87.63L121.97,88.75L122.88,89.17L123.04,88.72L123.23,88.93L123.52,88.76L123.31,89.04L123.61,89.05L123.57,89.34L123.16,89.34L123.95,90.49L123.83,92.68L130.82,92.55L130.70,94.73L131.96,94.29L133.41,94.38L133.60,94.73L134.75,95.19L134.65,96.17L135.55,96.53L136.27,96.35L137.24,97.18L138.71,96.45L137.97,95.43L138.05,92.31L137.42,91.61L137.71,90.07L139.46,89.62L138.06,88.45L138.33,88.08L138.75,88.21L138.25,87.16L138.85,86.54L138.44,86.12L137.62,86.32L137.56,86.03L137.60,85.71L138.56,85.10L138.41,84.59L138.80,83.86L138.11,83.53L137.94,82.76L138.22,81.59L137.67,80.93L136.38,81.72L135.46,81.65L135.63,81.09L134.90,79.78L135.65,80.12L136.16,80.00L137.76,78.75L137.30,78.09L135.45,78.56L134.51,77.25L133.92,77.20L133.91,76.66L132.79,76.55L132.24,76.09L131.25,76.38L131.87,74.55L131.19,74.58L130.96,75.54L129.99,75.34L128.13,76.41L128.01,77.02L127.26,77.35L128.18,78.75L127.01,80.54L127.24,80.97L127.59,80.81L127.84,81.06L128.04,81.79L127.70,82.19L128.00,82.52L127.34,82.99L127.23,83.54L126.37,83.88L126.29,83.36L125.30,82.46L125.13,82.99L124.35,82.75L123.66,83.16L123.46,83.71L121.73,85.13L121.61,86.55ZM119.09,87.96L118.72,87.93L118.60,87.97L118.81,88.06L119.09,87.96ZM121.94,89.70L121.41,89.46L120.93,90.50L121.38,90.63L121.94,89.70Z" fill="#647f65" fill-rule="evenodd" stroke="#253d3d" stroke-width=".45" stroke-linejoin="round"/>
<path d="M135.37,78.19L135.69,78.59L137.30,78.09L137.76,78.75L136.16,80.00L135.65,80.12L134.90,79.78L135.63,81.09L135.46,81.65L136.38,81.72L137.67,80.93L138.22,81.59L137.94,82.76L138.11,83.53L138.80,83.86L138.41,84.59L138.56,85.10L137.60,85.71L137.56,86.03L137.62,86.32L138.44,86.12L138.85,86.54L138.25,87.16L138.75,88.21L138.33,88.08L138.06,88.45L139.46,89.62L137.71,90.07L137.42,91.61L138.05,92.31L137.97,95.43L139.02,96.83L138.88,97.97L139.18,98.81L139.73,98.84L140.16,98.35L140.83,92.78L141.98,90.67L141.79,88.33L143.60,86.62L144.46,86.68L146.07,88.11L149.90,88.66L150.83,87.25L151.84,87.74L153.66,87.02L153.93,86.63L154.46,87.03L155.82,86.82L155.93,86.24L156.38,86.11L158.33,86.79L159.57,86.47L160.24,86.74L159.58,85.29L158.13,84.66L158.31,84.38L157.85,84.01L158.04,83.52L161.26,83.12L161.67,83.37L162.72,83.28L162.54,81.45L161.26,80.84L160.78,80.14L158.77,81.06L157.63,80.29L157.46,76.53L157.05,76.11L156.43,74.05L155.58,73.21L155.69,70.15L154.39,70.07L153.30,71.14L152.62,73.58L151.65,74.21L151.05,75.08L150.75,74.60L149.72,74.52L149.06,73.13L147.43,73.19L145.38,72.22L144.51,72.40L143.55,72.02L143.14,73.03L142.47,73.02L142.43,73.62L144.06,74.45L144.15,75.04L142.91,76.37L142.11,76.78L141.60,76.12L140.32,75.52L139.71,75.54L139.29,76.89L138.06,76.45L137.70,75.99L136.99,76.10L136.86,76.81L136.48,77.16L136.18,77.04L135.37,78.19Z" fill="#647f65" fill-rule="evenodd" stroke="#253d3d" stroke-width=".45" stroke-linejoin="round"/>
<path d="M136.74,109.43L137.77,109.57L138.49,112.22L139.73,114.05L140.88,114.10L141.75,113.73L143.48,113.88L143.83,111.80L145.51,111.62L146.09,111.62L145.90,112.39L148.52,112.39L148.60,113.14L149.12,113.41L150.20,113.30L150.78,113.67L151.36,113.45L151.50,113.74L153.00,113.52L153.04,112.23L153.39,111.55L154.05,111.94L155.13,111.10L156.10,111.17L156.25,110.91L155.71,110.55L155.87,110.40L157.54,110.26L157.43,108.43L157.81,107.65L163.10,107.65L162.01,106.00L159.54,105.09L159.55,103.75L158.98,102.49L159.02,101.78L159.68,101.92L160.22,101.46L160.90,101.42L159.75,99.76L160.01,99.73L160.05,99.23L160.88,99.10L161.01,98.61L159.01,97.68L158.22,98.04L157.58,97.45L158.08,98.17L157.26,100.36L156.96,100.15L156.86,101.12L155.57,101.65L155.15,101.28L154.04,101.29L153.74,100.18L153.08,100.02L151.80,98.96L152.33,98.59L152.03,98.23L151.00,98.09L151.86,97.66L151.03,96.49L150.27,94.47L149.57,94.10L150.16,92.89L150.54,93.09L151.77,92.59L152.36,92.73L151.80,92.05L151.17,92.01L150.96,91.69L151.20,90.75L150.65,91.04L150.26,90.24L151.39,89.64L151.83,89.74L152.10,89.34L150.70,89.24L150.13,88.75L148.98,88.46L146.07,88.11L144.46,86.68L143.60,86.62L141.79,88.33L141.98,90.67L140.83,92.78L140.16,98.35L139.22,99.39L138.27,99.89L136.92,101.84L137.00,104.10L136.30,105.45L137.34,105.78L137.67,106.29L137.07,107.22L136.74,109.43Z" fill="#647f65" fill-rule="evenodd" stroke="#253d3d" stroke-width=".45" stroke-linejoin="round"/>
<path d="M123.68,92.40L123.68,93.32L122.75,94.81L123.78,95.04L123.19,95.27L123.28,96.22L123.10,95.85L122.66,96.14L123.06,96.66L124.07,96.90L123.60,97.01L123.71,97.22L123.01,97.04L122.74,96.53L122.66,97.96L122.05,99.08L121.40,98.48L122.09,99.96L122.51,100.18L122.70,99.92L122.65,100.54L123.03,100.35L123.12,100.62L122.60,100.71L122.58,100.45L122.06,100.00L122.56,101.08L123.10,101.26L123.15,101.56L122.59,101.16L123.26,102.15L124.38,102.51L124.05,102.72L123.53,102.42L127.84,106.77L128.26,107.69L128.52,107.66L128.29,107.74L128.76,109.37L129.17,109.83L130.16,109.34L136.74,109.43L137.07,107.22L137.67,106.29L137.34,105.78L136.30,105.45L137.00,104.10L136.92,101.84L138.27,99.89L139.73,98.84L139.03,98.69L138.82,96.52L137.24,97.18L136.27,96.35L135.55,96.53L134.65,96.17L134.75,95.19L133.60,94.73L133.41,94.38L131.96,94.29L130.70,94.73L130.82,92.55L127.56,92.45L126.90,92.49L126.84,92.77L124.08,92.77L123.68,92.40ZM118.84,93.79L118.57,93.91L118.71,94.09L118.84,93.79ZM116.92,96.54L116.77,96.80L116.97,97.21L117.39,96.68L116.92,96.54ZM122.11,98.81L121.93,98.60L122.01,98.85L122.11,98.81ZM115.04,100.33L115.08,100.25L115.02,100.24L115.04,100.33ZM129.96,109.46L129.92,109.63L130.30,109.45L129.96,109.46Z" fill="#8eb4a4" fill-rule="evenodd" stroke="#253d3d" stroke-width=".45" stroke-linejoin="round"/>
<path d="M130.70,109.42L128.81,109.96L129.96,111.60L130.00,112.35L131.08,114.55L131.10,115.44L130.31,116.14L131.91,119.47L131.96,121.70L131.27,123.23L130.19,123.87L129.31,125.17L128.54,128.76L128.23,129.69L127.73,130.06L127.76,133.08L128.30,132.87L129.39,133.05L130.66,132.46L132.56,133.44L141.60,133.37L142.52,134.22L145.52,134.33L146.49,134.70L151.83,133.89L149.28,131.72L148.93,130.83L148.92,124.26L153.11,124.26L152.83,123.82L153.17,122.98L153.12,120.06L153.00,119.86L152.76,120.16L150.00,120.19L149.46,120.62L149.31,119.79L149.61,119.62L149.61,118.79L148.54,116.77L148.84,114.91L148.46,113.90L148.52,112.39L145.90,112.39L146.09,111.62L143.83,111.80L143.48,113.88L141.75,113.73L140.88,114.10L139.73,114.05L138.49,112.22L137.77,109.57L130.70,109.42ZM127.66,131.53L127.63,131.84L127.68,131.84L127.66,131.53Z" fill="#9caa78" fill-rule="evenodd" stroke="#253d3d" stroke-width=".45" stroke-linejoin="round"/>
<path d="M127.76,133.08L127.82,134.54L128.31,135.68L129.18,136.51L131.18,140.62L133.44,144.07L133.37,147.42L134.16,149.30L134.39,151.94L134.73,152.19L134.63,152.68L135.59,154.87L137.46,156.66L138.13,156.31L138.38,155.56L138.81,155.46L139.32,155.87L139.44,156.85L143.08,157.35L143.93,156.50L144.78,156.27L144.78,142.94L146.86,142.86L146.86,134.56L142.52,134.22L141.60,133.37L132.27,133.40L131.07,132.48L130.34,132.51L129.39,133.05L128.30,132.87L127.76,133.08Z" fill="#c5ad7e" fill-rule="evenodd" stroke="#253d3d" stroke-width=".45" stroke-linejoin="round"/>
<path d="M150.25,151.47L148.32,153.02L146.25,153.09L146.07,152.38L146.56,151.51L146.47,151.02L145.58,149.23L144.78,148.65L144.78,156.27L143.93,156.50L143.08,157.35L141.02,157.26L139.44,156.85L139.32,155.87L138.81,155.46L138.38,155.56L138.13,156.31L137.54,156.58L139.19,160.27L141.25,163.47L141.32,164.89L140.35,165.39L141.57,167.22L141.33,168.18L141.65,168.57L141.67,168.07L142.37,168.05L142.41,168.65L143.04,168.46L143.49,168.89L143.37,169.11L144.85,169.55L145.91,168.79L148.53,168.64L149.28,168.04L150.13,167.84L151.88,168.08L152.46,167.58L151.80,167.39L152.32,167.11L152.20,166.80L150.52,166.61L151.19,165.32L151.80,165.29L151.54,164.58L153.17,164.06L153.43,163.19L154.14,163.08L154.27,162.45L156.10,161.82L156.15,160.82L153.81,158.82L154.92,156.74L155.21,155.53L154.82,155.20L155.24,154.79L154.55,154.65L154.19,155.60L153.86,155.18L154.02,154.78L153.34,154.86L153.28,154.06L152.89,153.85L153.08,153.13L152.06,152.77L152.24,152.52L151.60,152.24L151.51,151.36L151.81,151.27L151.24,151.21L150.65,152.17L150.25,151.47Z" fill="#d6bb78" fill-rule="evenodd" stroke="#253d3d" stroke-width=".45" stroke-linejoin="round"/>
<path d="M153.95,133.54L147.73,134.65L146.86,134.56L146.86,142.86L144.78,142.94L144.78,148.65L145.58,149.23L146.47,151.02L146.56,151.51L146.07,152.38L146.25,153.09L148.32,153.02L148.51,152.65L149.08,152.52L150.45,151.21L151.05,149.81L151.99,149.75L152.95,150.47L154.49,150.87L156.13,150.64L156.53,150.13L156.30,150.00L156.50,148.90L156.91,148.38L158.09,148.40L159.01,147.60L159.59,146.10L160.89,145.47L162.10,144.15L164.19,143.32L163.62,143.04L163.55,142.52L160.34,141.83L159.80,140.75L159.77,139.01L157.52,137.75L157.13,136.55L155.36,133.89L153.95,133.54ZM161.14,142.90L161.00,142.86L161.12,142.77L161.14,142.90Z" fill="#9caa78" fill-rule="evenodd" stroke="#253d3d" stroke-width=".45" stroke-linejoin="round"/>
<path d="M150.25,151.47L150.65,152.17L151.24,151.21L151.81,151.27L151.51,151.36L151.60,152.24L152.24,152.52L152.06,152.77L153.08,153.13L152.89,153.85L153.28,154.06L153.34,154.86L154.02,154.78L153.86,155.18L154.19,155.60L154.55,154.65L155.24,154.79L154.82,155.20L155.21,155.53L154.92,156.74L153.81,158.82L156.15,160.82L156.17,161.68L155.91,162.09L154.27,162.45L154.14,163.08L153.43,163.19L153.17,164.06L151.71,164.43L151.53,164.75L151.80,165.29L151.19,165.32L150.51,166.45L152.20,166.80L152.32,167.11L151.80,167.39L152.46,167.58L152.35,167.81L154.82,168.28L155.08,167.82L156.42,167.95L156.81,167.32L158.32,167.34L159.53,166.86L162.53,164.86L164.32,163.03L165.56,162.23L168.37,158.16L170.47,156.54L171.48,153.35L171.66,151.40L171.43,151.84L170.76,151.14L172.20,149.78L174.82,148.86L174.45,148.56L174.78,148.39L174.71,148.04L174.12,148.21L173.84,147.78L173.64,145.74L172.40,144.14L172.53,143.16L172.06,142.33L172.33,141.91L171.90,142.10L170.53,141.46L168.21,143.76L166.16,143.64L164.84,143.20L163.57,143.39L163.29,143.88L161.80,144.33L160.89,145.47L159.33,146.35L159.01,147.60L158.09,148.40L157.32,148.25L156.60,148.69L156.30,150.00L156.53,150.13L156.13,150.64L154.49,150.87L151.59,149.71L150.71,150.16L150.25,151.47ZM171.65,151.35L171.72,151.18L171.54,151.30L171.65,151.35Z" fill="#9c8c70" fill-rule="evenodd" stroke="#253d3d" stroke-width=".45" stroke-linejoin="round"/>
<path d="M155.72,134.21L157.52,137.75L159.77,139.01L159.80,140.75L160.34,141.83L163.55,142.52L163.62,143.04L164.19,143.32L165.04,143.21L166.16,143.64L168.21,143.76L170.61,141.50L170.39,141.14L170.68,140.04L171.77,138.85L171.12,136.36L171.59,136.14L171.49,135.75L171.84,135.39L171.63,133.59L172.67,131.56L173.34,131.32L175.43,132.35L176.56,134.06L176.60,133.32L176.51,132.83L175.98,132.63L176.10,132.18L174.75,131.09L174.31,130.25L175.01,128.97L174.87,127.52L174.54,127.13L173.09,127.58L172.18,126.36L165.98,128.37L166.40,129.71L164.69,129.77L163.33,130.41L163.10,131.46L160.93,132.56L159.42,134.52L158.73,134.77L155.72,134.21ZM161.14,142.90L161.00,142.86L161.12,142.77L161.14,142.90Z" fill="#9caa78" fill-rule="evenodd" stroke="#253d3d" stroke-width=".45" stroke-linejoin="round"/>
<path d="M166.15,112.11L164.56,110.29L164.74,109.11L164.18,107.65L157.81,107.65L157.43,108.43L157.54,110.26L155.87,110.40L155.71,110.55L156.25,110.91L156.10,111.17L155.13,111.10L154.05,111.94L153.39,111.55L153.04,112.23L153.00,113.52L151.50,113.74L151.36,113.45L150.78,113.67L150.20,113.30L149.48,113.47L148.60,113.14L148.46,113.90L148.84,114.91L148.54,116.77L149.61,118.79L149.61,119.62L149.31,119.79L149.46,120.62L150.00,120.19L152.76,120.16L153.00,119.86L153.12,120.06L153.17,122.98L152.83,123.82L153.11,124.26L148.92,124.26L148.93,130.83L149.28,131.72L151.83,133.89L154.53,133.58L155.88,134.30L158.73,134.77L159.42,134.52L161.12,132.41L162.92,131.64L163.33,130.41L164.69,129.77L166.40,129.71L165.98,128.37L172.18,126.36L172.50,126.81L172.34,125.73L172.72,124.92L173.83,124.13L173.49,123.65L174.05,123.21L173.64,123.09L173.24,122.39L173.38,121.38L174.03,121.04L173.95,120.26L173.73,120.03L172.71,120.32L172.24,119.89L173.15,119.22L172.12,117.20L171.76,117.26L171.59,116.80L170.48,116.23L169.56,116.08L169.55,115.81L169.01,115.77L168.34,115.09L167.53,115.02L166.15,112.11Z" fill="#9caa78" fill-rule="evenodd" stroke="#253d3d" stroke-width=".45" stroke-linejoin="round"/>
<path d="M173.50,122.47L173.35,122.74L174.05,123.21L173.49,123.65L173.83,124.13L172.72,124.92L172.34,125.73L172.50,126.81L173.09,127.58L174.54,127.13L174.87,127.52L175.01,128.97L174.31,130.25L174.75,131.09L176.10,132.18L176.07,132.81L176.51,132.83L176.58,133.97L176.12,133.74L175.43,132.35L173.86,131.79L173.46,131.36L172.80,131.41L171.63,133.59L171.84,135.39L171.52,136.27L171.12,136.36L171.77,138.85L170.68,140.04L170.39,141.14L171.73,142.04L172.33,141.91L172.06,142.33L172.53,143.16L172.40,144.14L173.50,145.42L173.84,147.78L174.12,148.21L174.71,148.04L174.78,148.39L174.45,148.56L174.82,148.86L176.12,148.33L176.92,147.32L176.99,146.68L176.61,146.85L177.16,144.84L176.92,144.37L177.04,143.31L176.97,143.58L176.82,143.18L176.72,143.95L176.16,141.23L176.05,141.53L176.00,141.39L176.15,140.79L175.21,139.91L175.44,138.40L174.93,138.00L175.65,138.50L176.16,138.17L177.71,136.59L178.20,136.31L178.48,136.47L178.47,136.07L178.84,136.24L180.00,134.73L179.85,134.66L179.81,134.39L180.01,134.66L180.63,133.99L182.38,133.15L182.28,132.95L182.48,133.15L184.38,132.52L185.96,131.37L185.81,131.11L187.48,129.40L187.67,128.89L187.32,128.78L187.83,128.38L187.62,128.21L187.99,127.99L188.01,127.29L187.57,127.50L187.81,126.89L187.38,126.67L187.61,126.40L187.48,124.17L187.13,124.10L187.60,123.75L187.26,123.18L187.34,121.84L186.98,120.76L187.55,119.77L187.27,119.61L187.62,119.45L187.17,119.01L185.77,119.98L183.14,120.96L181.99,120.69L181.02,121.59L180.11,121.27L178.39,121.56L177.61,120.96L177.09,121.36L175.18,121.28L174.57,122.60L173.50,122.47ZM175.19,122.38L175.40,122.31L175.26,122.44L175.19,122.38ZM175.16,122.21L174.96,122.20L175.07,122.12L175.16,122.21ZM185.91,131.10L186.06,131.33L186.14,131.06L185.91,131.10ZM176.78,142.42L176.92,142.19L176.92,141.96L176.78,142.42Z" fill="#8eb4a4" fill-rule="evenodd" stroke="#253d3d" stroke-width=".45" stroke-linejoin="round"/>
<path d="M199.48,116.69L199.58,116.65L199.35,116.63L199.48,116.69ZM199.78,116.74L199.17,116.81L199.18,116.89L199.78,116.74ZM199.69,117.51L199.73,117.50L199.75,117.44L199.69,117.51ZM193.38,122.04L193.31,120.97L193.05,120.89L192.92,121.61L193.38,122.04ZM195.50,122.31L194.98,122.51L195.61,122.97L195.65,122.66L195.50,122.31ZM193.98,122.72L193.89,122.92L194.26,122.95L193.98,122.72ZM205.65,135.51L206.14,132.37L206.65,132.20L206.41,131.95L206.67,130.98L206.34,130.66L206.23,129.54L206.78,129.28L207.06,130.19L207.46,130.42L208.03,129.06L207.42,127.89L206.86,124.32L206.27,123.85L205.97,122.90L205.39,122.64L205.67,122.59L205.45,122.06L204.82,123.15L204.35,123.08L204.82,123.86L204.51,124.99L203.84,125.00L203.94,125.33L203.53,125.39L203.40,125.93L203.01,125.35L202.64,125.51L202.91,126.87L202.79,126.98L202.85,126.60L202.65,126.54L202.22,127.26L202.33,127.58L202.43,127.46L202.86,127.64L202.84,127.91L202.42,127.50L201.68,128.62L201.72,127.70L200.89,128.85L201.25,129.30L200.70,129.55L200.92,129.08L200.71,128.82L199.38,129.71L199.31,130.10L199.61,130.23L199.67,130.39L199.38,130.43L198.99,129.87L198.83,130.19L198.06,130.03L197.91,130.55L197.41,130.43L197.22,130.70L197.17,130.32L196.32,130.95L195.49,130.87L195.44,131.93L194.43,133.50L194.64,135.46L195.55,137.80L195.32,138.32L195.53,138.76L194.16,141.33L193.53,141.50L192.94,143.42L193.22,144.66L194.05,145.96L193.87,147.78L194.61,149.16L195.32,149.70L196.28,149.88L196.90,150.38L197.64,150.36L201.03,149.03L205.65,135.51ZM219.95,112.09L219.93,112.20L220.01,112.03L219.95,112.09ZM220.59,118.87L220.52,118.70L220.51,118.76L220.59,118.87ZM203.60,125.08L203.25,124.77L203.27,125.05L203.60,125.08ZM206.91,132.00L206.62,132.75L207.03,131.91L206.91,132.00ZM234.86,138.10L234.68,138.30L234.94,138.12L234.86,138.10ZM222.87,138.77L222.32,139.20L222.27,139.84L223.11,139.48L222.87,138.77Z" fill="#647f65" fill-rule="evenodd" stroke="#253d3d" stroke-width=".45" stroke-linejoin="round"/>
<path d="M172.50,101.77L173.34,102.99L172.79,103.20L172.63,104.06L171.98,104.39L171.47,104.02L171.11,104.42L170.74,103.90L170.06,104.06L169.96,104.89L169.16,105.20L169.03,106.01L168.48,106.31L168.63,106.86L168.08,107.56L168.05,108.60L167.74,108.68L167.52,108.19L167.05,108.04L165.52,108.39L166.36,110.54L165.48,111.39L166.15,112.11L167.53,115.02L168.34,115.09L169.01,115.77L169.55,115.81L169.56,116.08L171.16,116.54L172.46,117.66L172.41,118.20L173.15,119.22L172.24,119.89L172.71,120.32L173.73,120.03L173.95,120.26L174.03,121.04L173.38,121.38L173.24,122.39L174.57,122.60L175.09,121.33L177.09,121.36L177.61,120.96L178.39,121.56L180.11,121.27L181.02,121.59L181.99,120.69L183.14,120.96L186.60,119.49L187.19,118.74L185.67,118.11L185.86,117.72L185.36,116.88L185.52,116.34L185.22,116.21L184.82,114.92L185.13,113.90L185.01,113.42L184.71,113.51L184.76,113.04L185.33,111.78L184.03,110.65L183.73,109.79L184.64,107.00L181.29,104.56L181.41,103.64L180.59,103.20L179.86,103.49L180.17,104.51L179.17,104.87L179.07,105.74L178.48,105.80L177.85,104.83L177.45,105.21L177.39,104.67L177.07,105.08L176.69,104.79L175.68,105.38L175.39,104.99L175.68,104.73L175.70,103.25L176.16,103.33L176.33,102.43L175.19,102.44L173.90,101.69L172.50,101.77ZM175.16,122.21L174.96,122.20L175.07,122.12L175.16,122.21ZM175.19,122.38L175.40,122.31L175.26,122.44L175.19,122.38ZM185.84,108.49L185.99,107.45L185.61,107.42L185.54,108.04L185.79,108.18L185.52,108.50L185.84,108.49ZM185.50,108.64L185.54,108.58L185.37,108.49L185.50,108.64ZM184.63,109.43L184.68,109.42L184.66,109.24L184.63,109.43ZM185.24,110.68L184.84,109.14L184.56,110.05L185.24,110.68ZM186.05,113.12L185.67,113.48L185.41,113.76L185.90,113.69L186.05,113.12ZM185.68,114.07L185.85,113.89L185.73,113.86L185.68,114.07Z" fill="#9caa78" fill-rule="evenodd" stroke="#253d3d" stroke-width=".45" stroke-linejoin="round"/>
<path d="M160.24,86.74L159.57,86.47L158.33,86.79L156.38,86.11L155.93,86.24L155.82,86.82L154.46,87.03L153.93,86.63L153.66,87.02L151.84,87.74L150.83,87.25L149.90,88.66L150.70,89.24L152.10,89.34L151.83,89.74L151.39,89.64L150.26,90.24L150.65,91.04L151.20,90.75L150.96,91.69L151.17,92.01L151.80,92.05L152.38,92.67L151.02,92.75L150.54,93.09L150.16,92.89L149.57,94.10L150.27,94.47L151.03,96.49L151.86,97.66L151.00,98.09L152.03,98.23L152.33,98.59L151.80,98.96L153.08,100.02L153.74,100.18L154.04,101.29L155.15,101.28L155.57,101.65L156.86,101.12L156.96,100.15L157.26,100.36L158.08,98.17L157.58,97.45L158.22,98.04L159.01,97.68L161.01,98.61L160.88,99.10L160.05,99.23L160.01,99.73L159.75,99.76L160.90,101.42L160.22,101.46L159.68,101.92L159.02,101.78L158.98,102.49L159.55,103.75L159.54,105.09L162.01,106.00L163.10,107.65L164.18,107.65L164.74,109.11L164.56,110.29L165.48,111.39L166.36,110.54L165.56,108.34L167.05,108.04L167.52,108.19L167.74,108.68L168.05,108.60L168.08,107.56L168.63,106.86L168.48,106.31L169.03,106.01L169.16,105.20L169.96,104.89L170.06,104.06L170.74,103.90L171.11,104.42L171.47,104.02L171.98,104.39L172.63,104.06L172.79,103.20L173.39,102.89L172.19,101.66L172.94,101.39L172.34,101.26L172.70,100.42L171.14,100.31L171.44,97.60L170.71,97.60L171.07,96.11L170.37,96.13L170.70,95.82L170.51,94.87L169.60,94.20L170.39,93.39L170.33,92.71L169.43,92.35L168.25,92.79L167.04,92.20L167.40,89.96L167.09,89.64L166.67,89.77L166.63,89.24L165.97,89.07L165.16,88.24L165.12,87.81L164.40,87.60L163.93,88.25L162.96,87.81L162.23,88.39L160.92,87.73L160.24,86.74Z" fill="#9c8c70" fill-rule="evenodd" stroke="#253d3d" stroke-width=".45" stroke-linejoin="round"/>
<path d="M170.19,92.16L170.39,93.39L169.60,94.20L170.51,94.87L170.70,95.82L170.37,96.13L171.07,96.11L170.71,97.60L171.44,97.60L171.14,100.31L172.70,100.42L172.34,101.26L172.94,101.39L172.34,101.42L172.22,101.71L173.90,101.69L175.19,102.44L176.33,102.43L176.16,103.33L175.70,103.25L175.40,105.16L175.68,105.38L176.69,104.79L177.07,105.08L177.39,104.67L177.45,105.21L177.85,104.83L178.48,105.80L179.07,105.74L179.17,104.87L180.17,104.51L179.86,103.49L180.59,103.20L181.41,103.64L181.29,104.56L184.58,106.98L185.31,106.46L185.57,105.80L185.36,105.64L185.64,105.67L185.99,104.94L185.79,104.71L186.53,104.02L186.77,102.78L188.23,102.01L188.05,101.34L188.39,101.51L189.15,101.13L190.32,99.12L190.34,99.33L192.86,96.61L191.92,96.62L191.30,94.53L188.27,94.71L188.26,91.42L190.17,89.01L188.57,89.04L187.84,88.37L185.95,89.24L185.30,90.20L183.17,89.69L182.33,89.77L180.08,88.19L178.06,88.04L177.51,87.55L177.17,87.67L176.75,86.82L174.62,87.67L172.86,89.43L173.17,90.52L172.56,90.42L172.08,91.00L171.73,90.68L170.67,90.80L171.20,91.59L170.19,92.16ZM188.25,101.73L188.66,101.65L188.63,101.54L188.47,101.49L188.25,101.73Z" fill="#9caa78" fill-rule="evenodd" stroke="#253d3d" stroke-width=".45" stroke-linejoin="round"/>
<path d="M177.35,70.97L176.21,72.62L174.58,70.84L172.81,71.87L172.19,71.92L172.05,74.97L173.63,76.11L173.58,77.45L173.98,77.64L174.05,79.41L176.03,80.27L175.63,81.01L176.12,81.73L176.64,81.85L176.58,82.46L174.24,82.60L175.29,83.39L175.87,85.14L176.57,86.16L177.58,86.24L177.46,87.19L177.85,87.91L180.08,88.19L182.33,89.77L184.38,89.96L185.16,89.13L186.29,86.09L187.27,86.05L188.17,85.43L188.04,83.94L188.39,83.45L189.62,84.05L190.38,83.57L190.88,82.27L190.15,81.59L190.47,79.76L190.97,79.37L191.79,80.37L192.26,79.80L192.18,78.91L191.03,77.00L189.91,77.25L189.86,77.60L188.81,77.55L188.02,77.94L188.16,77.69L187.70,77.66L188.35,76.65L188.85,74.56L191.22,74.42L191.87,73.88L191.44,73.80L191.16,73.07L190.35,72.60L191.19,71.39L187.99,67.98L186.48,67.24L185.59,67.51L185.89,68.35L185.75,70.50L186.04,70.77L185.80,71.68L184.75,71.71L184.67,70.29L184.22,70.25L183.08,69.06L180.16,69.50L178.88,68.67L178.23,70.86L177.35,70.97Z" fill="#9c8c70" fill-rule="evenodd" stroke="#253d3d" stroke-width=".45" stroke-linejoin="round"/>
<path d="M192.98,73.42L192.21,74.48L191.67,74.25L188.94,74.50L188.52,75.05L188.35,76.65L187.70,77.66L188.16,77.69L188.02,77.94L188.81,77.55L189.86,77.60L189.91,77.25L191.03,77.00L192.18,78.91L192.26,79.80L191.79,80.37L190.97,79.37L190.47,79.76L190.15,81.59L190.88,82.27L190.38,83.57L189.62,84.05L188.39,83.45L188.04,83.94L188.17,85.43L187.27,86.05L186.29,86.09L185.16,89.13L184.38,89.96L185.30,90.20L185.95,89.24L187.84,88.37L188.57,89.04L190.17,89.01L188.26,91.42L188.27,94.71L191.30,94.53L191.92,96.62L192.86,96.61L195.69,94.03L198.75,92.20L202.73,88.01L204.99,84.51L206.65,80.74L208.70,77.71L208.90,75.83L209.92,75.58L209.42,75.34L209.45,75.58L209.08,75.61L209.39,75.26L209.22,73.72L209.66,72.70L208.64,72.38L207.13,73.37L204.86,73.91L203.92,73.77L203.11,74.15L201.53,74.07L199.62,75.07L198.18,74.70L196.54,75.64L195.76,75.71L194.39,75.00L193.50,73.67L192.98,73.42ZM217.81,106.49L217.84,106.62L217.90,106.57L217.81,106.49ZM218.44,106.98L218.10,106.90L218.46,107.24L218.44,106.98ZM218.69,105.16L218.72,105.18L218.71,105.14L218.69,105.16ZM218.88,106.15L218.82,106.14L218.86,106.18L218.88,106.15ZM218.95,106.23L218.78,106.25L218.92,106.31L218.95,106.23ZM219.17,106.25L219.14,106.24L219.16,106.27L219.17,106.25ZM219.12,106.33L219.07,106.27L219.05,106.34L219.12,106.33ZM219.31,106.80L219.30,106.77L219.27,106.78L219.31,106.80ZM218.41,106.82L218.37,106.82L218.37,106.85L218.41,106.82ZM218.36,106.89L218.39,106.90L218.39,106.88L218.36,106.89Z" fill="#8eb4a4" fill-rule="evenodd" stroke="#253d3d" stroke-width=".45" stroke-linejoin="round"/>
<path d="M155.69,70.15L155.58,73.21L156.43,74.05L157.05,76.11L157.46,76.53L157.63,80.29L158.77,81.06L160.78,80.14L161.26,80.84L162.56,81.50L162.72,83.28L161.67,83.37L161.26,83.12L158.09,83.49L157.85,83.86L158.31,84.38L158.13,84.66L159.58,85.29L159.95,86.46L160.92,87.73L162.23,88.39L162.96,87.81L163.93,88.25L164.40,87.60L165.12,87.81L165.16,88.24L165.97,89.07L166.63,89.24L166.67,89.77L167.09,89.64L167.40,89.96L167.01,92.15L168.25,92.79L169.43,92.35L170.22,92.58L170.19,92.16L171.20,91.59L170.75,90.76L171.73,90.68L172.08,91.00L172.56,90.42L173.17,90.52L172.86,89.43L174.62,87.67L176.75,86.82L177.17,87.67L177.81,87.68L177.46,87.19L177.58,86.24L176.57,86.16L175.87,85.14L175.29,83.39L174.24,82.60L176.58,82.46L176.64,81.85L176.12,81.73L175.63,81.01L176.03,80.27L174.05,79.41L173.98,77.64L173.58,77.45L173.63,76.11L172.05,74.97L172.19,71.92L171.20,71.91L171.23,72.35L169.86,72.35L169.17,71.89L169.04,71.12L168.64,70.91L167.85,71.08L167.06,71.78L166.40,71.32L165.71,71.32L165.21,70.84L164.50,71.77L163.22,71.36L162.70,72.40L161.53,72.42L160.66,73.59L160.09,73.72L159.79,73.55L159.72,72.71L157.72,72.32L156.95,71.48L157.22,71.16L155.69,70.15Z" fill="#9caa78" fill-rule="evenodd" stroke="#253d3d" stroke-width=".45" stroke-linejoin="round"/>
<path d="M176.38,70.69L178.23,70.86L178.88,68.67L180.16,69.50L183.08,69.06L184.22,70.25L184.67,70.29L184.75,71.71L185.86,71.61L185.89,68.35L185.59,67.51L186.48,67.24L186.99,67.51L187.45,66.23L186.59,66.16L186.41,65.40L186.00,65.08L185.67,65.93L183.36,59.89L182.64,60.85L181.10,61.31L180.88,61.91L178.09,62.00L177.26,61.61L177.05,62.88L174.84,63.18L174.24,64.01L174.58,64.93L173.41,64.66L172.99,65.03L172.88,65.23L173.88,65.77L174.33,66.50L173.64,67.87L174.12,68.70L174.46,68.76L174.55,69.33L176.38,70.69ZM186.46,64.09L186.35,63.84L186.24,64.01L186.46,64.09ZM187.08,64.94L186.60,64.79L186.32,64.29L186.11,64.51L186.39,64.90L187.08,64.94Z" fill="#8eb4a4" fill-rule="evenodd" stroke="#253d3d" stroke-width=".45" stroke-linejoin="round"/>
<path d="M193.86,53.72L192.38,54.06L191.01,55.01L190.47,54.45L190.46,55.07L189.78,56.17L190.11,56.24L190.18,57.03L190.06,57.31L189.17,57.45L189.13,57.99L190.00,58.81L189.56,59.70L191.03,61.03L191.14,61.74L191.93,62.66L192.08,65.57L191.67,65.62L192.35,66.23L193.44,70.92L194.44,71.11L195.81,70.65L196.74,70.77L196.87,70.36L198.00,69.57L200.15,69.39L201.59,68.92L202.87,68.08L204.25,68.11L205.07,67.15L208.65,65.92L208.49,65.58L207.56,65.52L207.59,62.98L209.60,61.27L211.08,57.83L204.98,58.70L203.17,59.59L201.65,61.78L202.31,56.72L196.46,57.21L194.77,56.02L194.40,55.41L194.68,54.63L193.86,53.72ZM190.21,62.38L190.26,62.07L190.06,62.20L190.21,62.38ZM190.62,62.41L190.21,62.50L189.90,62.19L190.08,62.50L190.73,62.84L190.62,62.41ZM191.72,65.20L191.54,65.52L191.61,65.57L191.72,65.20ZM192.00,68.05L191.90,68.27L192.04,68.35L192.00,68.05ZM191.90,68.74L191.95,68.85L192.03,68.66L191.90,68.74ZM187.45,66.23L186.99,67.51L187.99,67.98L190.79,70.83L191.19,71.39L190.35,72.60L191.16,73.07L191.44,73.80L191.87,73.88L191.67,74.25L192.32,74.43L192.98,73.42L192.80,73.18L191.63,73.45L191.50,73.22L193.26,72.34L193.16,71.34L192.48,70.49L192.01,70.56L191.48,69.79L191.19,69.82L191.00,69.09L189.74,68.33L188.66,66.87L187.85,66.76L187.45,66.23ZM193.37,71.04L193.37,70.96L193.29,70.97L193.37,71.04ZM216.36,71.24L214.23,70.88L213.85,71.21L214.81,71.72L216.36,71.24ZM211.32,71.85L211.62,72.03L211.93,72.05L211.90,71.94L211.32,71.85ZM213.37,72.01L213.25,72.06L213.38,72.08L213.37,72.01ZM213.79,72.09L213.71,72.10L213.84,72.12L213.79,72.09Z" fill="#8eb4a4" fill-rule="evenodd" stroke="#253d3d" stroke-width=".45" stroke-linejoin="round"/>
<path d="M217.35,45.43L217.76,46.21L219.00,46.00L218.91,46.96L219.41,47.27L218.29,47.52L218.46,47.92L217.74,49.53L217.73,50.13L218.66,51.64L217.30,55.76L211.08,57.83L209.60,61.27L207.59,62.98L207.56,65.52L208.49,65.58L208.65,65.92L210.46,65.42L211.60,64.85L211.45,64.08L212.23,63.12L215.45,61.95L217.40,61.95L217.87,61.50L217.81,60.90L218.26,60.23L220.13,60.03L221.04,58.39L223.14,57.87L222.92,56.37L223.26,55.21L224.05,54.47L223.98,54.91L224.63,54.88L224.97,54.03L226.33,52.76L227.27,51.18L227.30,50.48L226.71,50.44L225.14,48.39L221.80,47.54L220.68,46.41L219.97,43.97L220.39,43.09L220.10,42.93L220.41,42.99L220.24,42.73L220.47,42.62L219.79,42.78L219.44,43.54L217.35,45.43ZM219.34,60.90L219.61,60.90L219.53,60.81L219.34,60.90ZM219.19,60.93L219.13,60.90L219.08,60.96L219.19,60.93ZM225.39,54.33L224.89,55.01L224.91,55.39L225.54,54.67L225.39,54.33Z" fill="#8eb4a4" fill-rule="evenodd" stroke="#253d3d" stroke-width=".45" stroke-linejoin="round"/>
<path d="M179.09,43.79L179.21,43.79L179.13,43.63L179.09,43.79ZM179.06,43.99L179.09,44.14L179.36,44.23L179.06,43.99ZM179.89,44.29L179.83,44.13L179.84,44.23L179.89,44.29ZM179.75,44.19L179.69,44.20L179.73,44.26L179.75,44.19ZM179.60,44.30L179.48,44.19L179.57,44.31L179.60,44.30ZM179.97,44.51L179.85,44.47L179.58,44.35L179.97,44.51ZM184.19,38.79L182.03,38.53L181.53,37.34L180.87,37.96L179.02,37.97L177.67,37.10L175.58,37.30L175.05,38.87L175.10,39.08L175.30,38.85L176.35,39.03L180.52,44.97L180.63,45.44L180.35,45.68L180.93,46.68L182.01,47.01L183.06,47.89L184.49,50.78L184.05,51.54L184.55,53.44L185.76,55.02L186.40,55.15L187.90,56.34L189.57,59.65L190.00,58.81L189.71,58.29L189.17,58.16L189.14,57.50L190.06,57.31L190.11,56.24L189.78,56.17L190.46,55.07L190.47,54.45L191.01,55.01L192.38,54.06L193.86,53.72L193.28,52.79L193.48,50.56L192.60,50.48L192.46,49.81L191.14,49.52L190.36,47.87L190.61,46.17L190.14,45.37L189.72,45.21L189.60,44.36L188.07,44.14L187.56,44.50L186.25,44.67L186.18,42.69L185.80,42.44L186.60,40.83L186.10,40.47L185.82,39.56L184.19,38.79ZM180.09,44.43L179.93,44.45L180.11,44.54L180.09,44.43ZM180.56,54.01L180.61,54.16L180.63,54.02L180.56,54.01Z" fill="#c5ad7e" fill-rule="evenodd" stroke="#253d3d" stroke-width=".45" stroke-linejoin="round"/>
<path d="M203.73,38.02L203.06,36.62L202.51,36.51L202.31,36.96L201.69,37.11L202.15,38.03L203.73,38.02ZM187.39,37.44L184.19,38.79L185.82,39.56L186.10,40.47L186.60,40.83L185.80,42.44L186.18,42.69L186.15,44.49L186.50,44.71L188.43,44.13L189.67,44.42L189.72,45.21L190.14,45.37L190.61,46.17L190.36,47.87L191.14,49.52L192.46,49.81L192.60,50.48L193.48,50.56L193.32,52.96L194.64,54.53L194.40,55.41L194.77,56.02L196.65,57.25L202.31,56.72L203.47,47.70L203.13,46.88L201.78,45.71L201.66,42.75L200.46,42.02L198.42,41.45L196.60,40.11L196.42,40.26L195.57,39.64L194.80,39.51L193.96,38.28L192.66,38.33L192.41,37.90L191.69,38.01L190.41,37.41L187.39,37.44Z" fill="#c5ad7e" fill-rule="evenodd" stroke="#253d3d" stroke-width=".45" stroke-linejoin="round"/>
<path d="M206.03,40.46L205.85,40.56L206.34,40.56L206.03,40.46ZM208.25,42.79L208.34,42.72L208.23,42.71L208.25,42.79ZM208.24,42.86L207.98,42.79L207.92,42.98L208.15,43.73L208.24,42.86ZM207.78,43.04L207.85,42.95L207.78,42.96L207.78,43.04ZM203.73,38.02L202.15,38.03L201.67,37.07L199.80,36.86L198.08,37.56L196.49,39.93L197.13,40.73L198.42,41.45L200.46,42.02L201.66,42.75L201.78,45.71L203.44,47.44L201.65,61.78L203.17,59.59L204.98,58.70L211.08,57.83L217.30,55.76L218.66,51.64L217.73,50.13L217.74,49.53L218.46,47.92L218.29,47.52L219.41,47.27L218.91,46.96L219.00,46.00L217.76,46.21L217.35,45.43L216.60,45.92L216.48,46.39L216.14,46.33L216.46,46.52L216.06,46.91L214.97,47.31L212.33,47.03L211.27,47.52L210.73,47.44L210.28,46.64L210.23,46.91L209.64,46.81L210.09,46.25L209.68,46.37L209.51,46.11L209.76,46.26L210.27,45.46L210.03,44.28L210.25,43.54L209.57,42.96L209.02,43.33L209.01,44.03L208.54,44.34L208.58,45.93L207.94,44.44L207.00,43.30L207.03,42.88L207.28,43.22L207.43,42.84L206.95,41.82L207.28,41.88L206.06,40.85L205.69,40.91L205.16,40.30L205.41,40.08L204.65,39.94L204.66,39.48L203.73,38.02ZM208.59,43.80L208.60,43.82L208.62,43.80L208.59,43.80ZM208.68,43.96L208.65,43.96L208.66,43.99L208.68,43.96ZM208.53,43.94L208.56,43.98L208.64,43.85L208.53,43.94ZM208.62,44.06L208.66,44.02L208.61,44.01L208.62,44.06ZM215.77,44.93L215.75,44.86L215.68,44.89L215.77,44.93ZM213.36,45.67L213.36,45.59L213.32,45.59L213.36,45.67ZM210.57,46.27L210.59,46.22L210.55,46.18L210.57,46.27ZM211.77,46.32L211.78,46.46L211.83,46.40L211.77,46.32ZM216.22,46.57L216.09,46.36L215.96,46.50L216.22,46.57ZM215.85,46.69L215.91,46.79L215.97,46.69L215.85,46.69ZM213.87,46.90L214.06,46.59L213.58,46.87L213.87,46.90ZM215.84,46.81L215.65,46.79L215.77,46.86L215.84,46.81ZM212.28,46.76L212.47,46.80L212.39,46.67L212.28,46.76ZM215.66,46.87L215.50,46.88L215.65,46.93L215.66,46.87ZM211.14,47.01L211.18,46.93L211.14,46.92L211.14,47.01ZM214.50,47.09L215.11,47.15L215.20,47.08L214.50,47.09Z" fill="#8eb4a4" fill-rule="evenodd" stroke="#253d3d" stroke-width=".45" stroke-linejoin="round"/>
<path d="M188.75,11.53L189.08,12.09L187.28,13.10L187.81,13.92L186.78,14.24L187.67,14.88L187.54,15.20L186.35,15.60L186.29,16.10L187.07,15.93L186.89,17.39L184.43,17.67L184.58,18.29L185.95,18.79L186.80,20.62L185.10,21.09L185.86,21.57L185.57,23.03L184.69,24.09L186.62,26.53L183.72,27.99L184.25,30.15L184.79,30.33L184.19,30.82L182.09,31.35L181.86,32.43L182.56,33.13L184.59,33.00L188.08,33.47L189.43,33.95L190.16,34.86L187.94,36.15L187.39,37.44L190.41,37.41L191.69,38.01L192.41,37.90L192.66,38.33L193.96,38.28L194.80,39.51L195.57,39.64L196.42,40.26L197.92,37.72L199.86,36.81L200.24,34.80L199.88,33.92L200.95,33.80L201.02,33.25L201.03,32.64L200.25,32.50L199.34,30.97L199.89,30.87L199.59,30.28L199.94,29.13L198.89,28.85L199.02,28.22L197.41,26.74L197.78,26.13L197.49,25.76L197.66,25.46L198.06,25.54L198.02,24.98L198.51,24.43L198.99,24.40L198.69,23.24L199.36,22.91L198.17,22.92L197.66,22.52L198.79,21.60L201.06,21.82L201.45,21.48L201.17,20.96L200.47,20.98L200.02,20.33L199.30,20.71L197.44,19.87L196.83,17.74L197.65,16.34L195.51,14.29L193.86,14.00L193.65,13.26L193.95,12.61L193.27,11.76L191.78,10.93L191.31,11.26L189.41,11.08L188.75,11.53Z" fill="#d6bb78" fill-rule="evenodd" stroke="#253d3d" stroke-width=".45" stroke-linejoin="round"/>
<path d="M170.93,32.78L171.46,35.17L175.81,35.90L175.58,37.30L177.67,37.10L179.02,37.97L180.87,37.96L181.53,37.34L181.79,38.39L183.49,38.85L184.19,38.79L187.68,37.19L187.94,36.15L190.16,34.86L189.43,33.95L188.08,33.47L184.59,33.00L182.56,33.13L181.86,32.43L182.09,31.35L184.19,30.82L184.79,30.33L184.25,30.15L183.72,27.99L186.62,26.53L184.69,24.09L185.57,23.03L185.86,21.57L185.10,21.09L186.80,20.62L185.95,18.79L184.58,18.29L184.65,17.95L183.78,18.19L183.01,17.94L182.38,18.58L180.92,19.01L181.34,19.38L181.24,19.64L180.13,19.97L179.82,19.69L178.91,20.54L177.80,20.59L178.42,21.17L177.54,21.87L177.92,22.49L177.43,23.44L177.81,23.74L177.94,25.57L177.25,26.09L175.09,31.32L173.93,32.44L170.93,32.78ZM172.70,32.59L172.60,32.53L172.49,32.51L172.70,32.59Z" fill="#8eb4a4" fill-rule="evenodd" stroke="#253d3d" stroke-width=".45" stroke-linejoin="round"/>
<path d="M160.41,12.17L163.43,12.15L163.69,11.66L161.88,11.07L161.34,10.44L161.43,10.13L160.46,10.28L159.89,9.89L158.54,10.14L157.91,10.61L158.49,10.88L158.57,11.37L157.94,11.62L158.00,12.23L157.32,12.70L157.50,12.98L158.97,12.98L157.69,13.56L157.58,14.11L159.92,12.77L160.41,12.17ZM176.62,21.40L178.01,20.41L178.91,20.54L179.82,19.69L180.13,19.97L181.32,19.60L180.92,19.01L182.38,18.58L183.01,17.94L184.05,18.16L184.43,17.67L186.89,17.39L187.07,15.93L186.29,16.10L186.35,15.60L187.54,15.20L187.67,14.88L186.78,14.24L187.81,13.92L187.28,13.10L189.08,12.09L188.75,11.53L186.52,12.32L185.08,11.92L182.80,12.32L181.67,11.90L180.33,11.85L179.54,11.39L178.91,11.65L178.07,10.70L176.52,10.67L176.11,10.26L176.35,10.04L175.95,9.88L175.27,10.19L172.43,10.04L170.23,10.66L168.45,11.49L168.09,11.96L163.74,11.71L163.53,12.19L164.21,12.65L165.39,12.65L163.04,13.08L163.78,13.33L163.60,13.45L161.28,13.47L161.47,13.24L160.90,13.11L161.16,13.43L160.96,13.56L159.95,13.28L158.78,13.39L157.57,14.35L157.41,15.32L159.20,15.11L158.51,15.73L159.08,16.16L158.92,16.41L159.45,16.54L158.74,17.02L159.19,17.48L159.66,17.45L158.84,17.62L158.76,17.48L158.65,17.74L158.11,16.97L158.06,17.44L158.32,17.48L157.74,17.81L159.82,18.40L159.84,18.91L159.35,19.07L159.76,19.22L159.76,19.71L160.60,19.89L160.47,20.19L159.82,20.28L159.87,20.53L162.08,20.39L161.45,20.61L161.45,20.91L160.62,20.87L160.08,21.11L161.65,20.89L161.34,21.09L161.50,21.35L162.32,20.70L163.09,21.26L163.34,20.97L163.67,21.15L163.67,21.72L164.86,22.28L165.87,21.91L166.37,22.10L166.96,20.68L169.74,21.40L170.44,22.16L171.35,22.48L173.18,22.23L173.56,21.88L173.74,22.09L175.26,20.84L176.62,21.40ZM160.58,12.85L160.58,13.03L160.83,12.89L160.58,12.85ZM160.65,13.20L160.53,13.24L160.66,13.30L160.65,13.20ZM157.28,13.92L156.75,13.80L156.55,13.97L157.28,13.92ZM157.42,14.57L157.22,14.60L157.41,14.67L157.42,14.57Z" fill="#9c8c70" fill-rule="evenodd" stroke="#253d3d" stroke-width=".45" stroke-linejoin="round"/>
<path d="M197.65,16.34L196.83,17.74L197.36,19.78L199.30,20.71L200.02,20.33L200.47,20.98L201.17,20.96L201.45,21.48L201.06,21.82L198.79,21.60L197.66,22.52L198.17,22.92L199.36,22.91L198.69,23.24L198.99,24.40L198.51,24.43L198.02,24.98L198.06,25.54L197.66,25.46L197.49,25.76L197.78,26.13L197.41,26.74L199.02,28.22L198.89,28.85L199.94,29.13L199.59,30.28L199.89,30.87L199.34,30.97L200.25,32.50L201.03,32.64L200.95,33.80L199.88,33.92L200.24,34.80L199.80,36.86L201.69,37.11L202.31,36.96L202.51,36.51L203.06,36.62L202.81,36.25L202.23,36.31L202.77,35.87L203.21,35.90L202.80,35.28L202.74,34.80L203.92,35.13L204.65,34.94L204.62,34.27L204.87,33.92L205.35,33.94L205.33,34.27L204.75,34.20L206.01,34.94L206.81,34.56L207.87,34.53L207.80,33.54L206.89,33.19L206.81,32.48L207.52,31.90L208.97,32.69L209.70,32.57L210.05,33.17L210.60,33.35L210.86,32.25L210.40,31.77L211.42,31.43L212.07,31.85L212.93,31.67L212.96,29.79L216.74,28.93L218.09,27.53L217.94,25.89L212.99,26.01L210.69,25.56L211.09,24.35L210.82,23.45L212.36,23.90L212.97,23.76L213.36,23.32L213.27,22.88L214.41,22.59L215.52,21.53L214.46,20.71L214.89,20.71L215.28,20.63L215.28,20.55L210.94,21.32L209.06,20.94L207.97,20.38L207.29,19.62L205.34,19.25L204.79,18.54L204.65,17.48L204.10,17.56L202.86,16.67L203.43,16.32L203.05,15.82L203.54,15.52L202.75,14.84L199.80,16.55L197.65,16.34ZM203.06,34.93L202.86,35.01L202.90,35.05L203.06,34.93ZM203.09,35.03L202.93,35.40L203.31,35.82L203.55,35.42L203.09,35.03ZM203.57,36.11L203.53,36.19L203.66,36.26L203.57,36.11Z" fill="#9c8c70" fill-rule="evenodd" stroke="#253d3d" stroke-width=".45" stroke-linejoin="round"/>
<path d="M207.09,34.56L208.34,36.13L208.32,36.77L208.91,37.00L208.67,37.24L209.18,37.61L209.88,39.28L212.00,39.87L212.53,40.33L212.37,40.48L214.68,41.82L215.91,41.81L216.93,42.26L219.67,40.88L221.09,40.93L221.43,41.21L222.16,43.75L223.91,44.24L225.24,44.20L225.68,44.53L226.20,44.40L225.28,43.44L225.53,41.83L225.16,40.74L225.72,38.48L225.40,38.16L226.39,37.66L226.55,36.33L226.26,35.61L226.70,33.73L225.57,32.50L220.73,30.73L218.91,31.72L218.76,32.68L216.24,33.17L216.55,35.30L216.16,35.42L215.42,35.02L213.77,32.09L212.93,31.67L211.60,31.76L211.42,31.43L210.40,31.77L210.86,32.25L210.38,33.38L209.70,32.57L208.97,32.69L207.52,31.90L206.81,32.48L206.89,33.19L207.80,33.54L207.87,34.53L207.09,34.56ZM207.66,36.63L207.68,36.53L207.57,36.51L207.66,36.63ZM213.99,41.62L213.57,41.51L213.53,41.55L213.66,41.63L213.99,41.62ZM214.54,41.93L214.55,41.87L214.46,41.86L214.54,41.93ZM215.35,42.28L215.16,42.12L215.07,42.18L215.35,42.28ZM216.29,42.74L216.40,42.69L216.34,42.63L216.29,42.74ZM220.39,41.00L220.44,41.11L220.46,41.03L220.39,41.00ZM220.20,41.55L220.12,41.47L220.08,41.56L220.20,41.55ZM220.01,41.31L218.86,41.34L218.95,41.64L217.93,41.92L217.96,42.16L219.30,41.85L220.01,41.31ZM219.11,42.00L219.22,41.95L219.20,41.88L219.11,42.00ZM216.40,43.51L216.40,43.44L216.33,43.47L216.40,43.51ZM217.37,43.54L217.41,43.59L217.43,43.51L217.37,43.54Z" fill="#d6bb78" fill-rule="evenodd" stroke="#253d3d" stroke-width=".45" stroke-linejoin="round"/>
<path d="M214.66,20.84L215.52,21.53L214.41,22.59L213.27,22.88L213.36,23.32L212.97,23.76L212.36,23.90L210.82,23.45L211.09,24.35L210.69,25.56L212.99,26.01L217.94,25.89L218.14,27.38L216.74,28.93L212.96,29.79L212.93,31.67L214.04,32.37L215.42,35.02L216.16,35.42L216.55,35.30L216.24,33.17L218.76,32.68L218.91,31.72L220.73,30.73L225.87,32.69L226.70,33.73L226.26,35.61L226.55,36.51L226.39,37.66L225.40,38.16L225.72,38.48L225.16,40.74L225.53,41.83L225.28,43.44L226.15,44.47L228.67,44.76L228.52,44.58L228.84,44.44L229.02,44.80L230.63,45.24L231.06,44.77L231.55,42.79L232.40,42.54L232.73,42.12L234.21,41.99L234.58,40.97L234.27,40.68L233.39,40.66L233.38,38.60L231.62,38.01L229.45,35.28L231.40,33.26L231.49,32.84L231.14,32.12L229.41,31.88L229.42,30.32L228.87,28.64L229.61,27.69L228.76,27.43L228.71,26.49L229.04,26.05L229.55,26.02L229.15,25.61L229.91,24.99L230.38,23.47L230.04,22.59L230.12,21.21L228.41,21.21L227.74,20.40L226.58,20.01L226.23,19.34L225.22,19.01L224.33,19.15L222.22,18.45L221.83,17.81L220.32,17.85L219.86,18.24L218.22,18.22L217.05,18.88L216.55,19.56L215.09,19.74L215.34,20.78L214.66,20.84Z" fill="#c5ad7e" fill-rule="evenodd" stroke="#253d3d" stroke-width=".45" stroke-linejoin="round"/>
</svg>
