<svg xmlns="http://www.w3.org/2000/svg" viewBox="0 0 300 180">
<title>Nile Valley &amp; the Horn</title>
<rect width="300" height="180" rx="6" fill="#14232e"/>
<path d="M119.24,11.88L119.60,11.82L119.37,11.78L119.24,11.88ZM121.05,12.20L120.82,12.05L120.56,12.00L121.05,12.20ZM118.79,12.52L118.75,12.54L118.82,12.60L118.79,12.52ZM97.85,14.78L101.18,17.84L101.84,17.84L124.99,12.31L124.62,11.41L121.97,12.39L120.82,12.20L119.51,12.74L119.63,12.38L119.34,12.03L118.73,12.47L118.92,12.69L118.60,12.43L117.27,12.71L118.10,12.47L118.52,12.20L116.95,12.66L115.67,11.62L115.26,11.58L115.50,11.91L115.39,12.38L114.77,12.57L114.42,12.44L114.26,11.89L113.77,12.04L112.98,11.48L113.55,10.33L114.06,11.01L115.04,11.50L113.82,10.38L113.48,10.31L111.80,10.74L109.76,9.95L109.35,10.00L109.83,10.29L109.78,10.52L109.46,10.39L109.20,10.80L108.33,10.75L108.02,11.04L107.10,11.01L109.17,10.05L106.86,10.69L106.24,10.44L106.11,11.08L105.36,11.62L105.88,11.59L105.56,11.88L104.84,11.31L102.58,12.92L100.76,13.77L99.85,13.83L96.87,12.54L95.19,12.52L96.79,14.12L97.85,14.78Z" fill="#9caa78" fill-rule="evenodd" stroke="#253d3d" stroke-width=".45" stroke-linejoin="round"/>
<path d="M124.72,28.90L125.71,27.96L125.84,27.05L125.61,26.35L126.69,24.05L127.19,21.39L127.91,20.47L127.18,17.91L126.53,16.23L126.22,15.95L125.96,14.70L124.99,12.31L101.31,17.84L103.97,21.57L118.07,24.38L117.08,23.04L117.24,22.47L116.92,21.17L115.70,19.93L116.44,18.66L116.32,18.36L116.81,18.16L117.08,18.56L116.98,18.81L117.39,19.26L117.54,20.59L118.00,20.85L118.32,21.70L119.67,23.03L120.01,25.07L121.58,26.40L123.08,28.20L124.86,29.23L124.72,28.90Z" fill="#d6bb78" fill-rule="evenodd" stroke="#253d3d" stroke-width=".45" stroke-linejoin="round"/>
<path d="M90.14,47.64L99.72,44.31L102.11,40.99L103.97,21.30L102.78,19.97L101.71,18.24L95.19,12.52L95.70,12.52L94.43,12.40L94.27,11.81L93.30,12.07L92.43,11.91L91.97,11.64L91.78,11.14L90.14,10.85L90.14,47.64Z" fill="#c5ad7e" fill-rule="evenodd" stroke="#253d3d" stroke-width=".45" stroke-linejoin="round"/>
<path d="M118.07,24.38L103.97,21.57L102.11,40.85L120.60,27.64L118.89,25.45L118.24,25.00L118.07,24.38Z" fill="#9caa78" fill-rule="evenodd" stroke="#253d3d" stroke-width=".45" stroke-linejoin="round"/>
<path d="M126.04,28.10L126.63,28.27L126.11,28.04L126.14,27.80L126.04,28.10ZM127.04,28.33L127.17,28.09L126.83,28.23L127.04,28.33ZM123.25,30.25L123.91,30.62L123.80,30.35L123.25,30.25ZM123.61,34.24L123.54,33.89L123.45,33.89L123.61,34.24ZM99.72,44.31L103.84,45.77L104.64,45.77L127.43,41.52L123.93,35.12L123.38,34.57L123.62,33.31L122.88,32.25L122.82,31.56L122.18,31.15L121.90,30.38L121.25,29.63L121.63,29.46L121.18,28.64L121.71,28.92L121.63,28.62L121.33,28.08L120.60,27.64L102.11,40.85L99.72,44.31Z" fill="#d6bb78" fill-rule="evenodd" stroke="#253d3d" stroke-width=".45" stroke-linejoin="round"/>
<path d="M127.43,41.52L124.99,42.05L104.24,45.77L123.26,59.34L131.81,53.09L130.79,50.26L130.77,48.17L130.91,47.87L132.21,48.29L132.06,47.91L130.81,47.22L130.33,46.35L129.14,45.27L129.22,44.98L128.16,42.77L127.43,41.52Z" fill="#8eb4a4" fill-rule="evenodd" stroke="#253d3d" stroke-width=".45" stroke-linejoin="round"/>
<path d="M90.14,47.64L90.14,60.41L119.80,68.12L123.26,59.47L122.46,58.68L104.24,45.77L99.98,44.31L90.14,47.64Z" fill="#c5ad7e" fill-rule="evenodd" stroke="#253d3d" stroke-width=".45" stroke-linejoin="round"/>
<path d="M90.14,84.61L102.24,86.08L105.84,84.08L121.00,75.57L119.94,68.39L119.27,67.85L115.55,67.06L114.88,73.01L115.55,67.06L115.15,66.79L90.14,60.41L90.14,84.61Z" fill="#9caa78" fill-rule="evenodd" stroke="#253d3d" stroke-width=".45" stroke-linejoin="round"/>
<path d="M139.23,63.49L139.33,63.83L139.39,63.50L139.23,63.49ZM131.81,53.09L123.26,59.21L122.73,60.41L122.60,61.20L119.80,67.99L121.00,75.57L132.17,83.95L132.57,83.95L144.41,76.77L144.09,76.46L144.28,76.05L143.54,76.34L143.18,75.85L143.40,75.52L142.46,74.67L141.26,73.89L140.67,74.05L140.11,73.29L139.22,69.83L139.27,68.53L138.97,67.74L139.10,67.04L138.87,65.90L139.12,64.83L138.44,62.38L138.61,61.55L139.08,61.96L139.29,62.42L138.95,62.24L139.23,62.64L139.49,62.30L138.57,61.28L137.49,59.44L137.26,57.87L137.53,57.37L135.34,55.93L135.29,55.58L134.19,54.46L132.69,54.04L131.91,53.07L132.11,53.37L131.81,53.09Z" fill="#9c8c70" fill-rule="evenodd" stroke="#253d3d" stroke-width=".45" stroke-linejoin="round"/>
<path d="M101.98,86.08L113.02,98.98L124.46,98.98L131.38,96.18L131.78,95.65L132.31,83.95L121.13,75.57L119.27,76.37L101.98,86.08Z" fill="#d6bb78" fill-rule="evenodd" stroke="#253d3d" stroke-width=".45" stroke-linejoin="round"/>
<path d="M90.14,117.20L105.30,114.41L113.02,98.85L101.98,86.08L90.14,84.61L90.14,117.20Z" fill="#c5ad7e" fill-rule="evenodd" stroke="#253d3d" stroke-width=".45" stroke-linejoin="round"/>
<path d="M113.02,98.98L105.30,114.41L118.07,120.53L124.33,98.98L113.02,98.98Z" fill="#9caa78" fill-rule="evenodd" stroke="#253d3d" stroke-width=".45" stroke-linejoin="round"/>
<path d="M124.33,98.98L118.07,120.53L126.99,130.24L128.18,130.63L133.77,120.53L131.38,96.18L124.33,98.98Z" fill="#647f65" fill-rule="evenodd" stroke="#253d3d" stroke-width=".45" stroke-linejoin="round"/>
<path d="M90.14,117.20L90.14,138.07L90.73,138.36L91.32,139.24L91.20,140.08L126.99,130.24L118.21,120.53L105.44,114.41L90.40,117.07L90.14,117.20Z" fill="#647f65" fill-rule="evenodd" stroke="#253d3d" stroke-width=".45" stroke-linejoin="round"/>
<path d="M134.04,172.00L140.82,151.92L128.05,130.63L126.85,130.24L91.20,140.08L91.28,140.58L92.23,142.12L93.66,143.21L93.84,144.19L94.99,144.42L95.17,145.07L95.41,144.95L95.78,145.43L96.38,145.40L96.86,145.77L98.54,144.40L98.83,144.77L99.65,144.69L100.78,145.46L101.58,144.70L101.87,143.89L102.68,143.96L103.53,144.39L103.43,145.14L103.62,145.43L104.22,145.72L104.18,145.98L105.09,146.64L105.49,147.40L107.02,147.81L107.11,149.08L108.08,148.77L108.53,149.69L108.80,149.54L108.86,150.17L108.36,150.90L108.07,151.94L108.60,152.65L107.89,154.79L108.31,154.90L108.68,155.44L108.96,155.08L109.56,155.65L110.14,155.59L110.59,156.58L109.42,158.19L107.77,159.57L106.80,160.87L105.65,161.38L105.20,162.54L104.25,162.93L104.22,164.55L103.70,165.36L103.55,166.17L103.12,166.54L102.64,171.32L102.35,172.00L134.04,172.00Z" fill="#647f65" fill-rule="evenodd" stroke="#253d3d" stroke-width=".45" stroke-linejoin="round"/>
<path d="M152.60,87.00L152.35,87.43L152.86,87.61L152.96,87.21L152.60,87.00ZM144.69,76.46L132.31,83.95L131.78,95.65L139.49,98.45L155.59,93.26L154.92,92.50L154.26,92.47L153.77,92.91L153.16,92.57L152.52,91.31L152.74,90.74L151.80,89.98L151.32,90.48L151.39,91.21L151.52,91.09L151.71,91.53L151.49,92.09L151.03,92.02L151.05,91.17L150.53,90.00L149.80,89.88L149.67,89.49L149.92,89.43L149.73,89.33L149.89,89.20L149.65,88.41L149.01,87.87L147.87,82.38L147.27,80.57L145.62,77.19L145.42,76.99L145.27,77.21L144.69,76.46ZM152.55,88.38L152.06,88.81L152.78,89.20L152.09,89.00L152.22,89.37L154.28,89.64L154.34,89.31L153.93,89.06L153.18,89.28L153.05,88.48L152.82,88.55L152.83,88.26L152.52,88.10L152.55,88.38Z" fill="#9c8c70" fill-rule="evenodd" stroke="#253d3d" stroke-width=".45" stroke-linejoin="round"/>
<path d="M155.59,93.13L153.59,93.92L139.22,98.45L148.67,108.55L160.24,97.34L157.93,94.27L156.06,94.00L155.59,93.13Z" fill="#9c8c70" fill-rule="evenodd" stroke="#253d3d" stroke-width=".45" stroke-linejoin="round"/>
<path d="M131.38,96.05L133.77,120.39L149.07,112.94L148.67,108.55L139.22,98.45L132.04,95.65L131.64,95.65L131.38,96.05Z" fill="#9c8c70" fill-rule="evenodd" stroke="#253d3d" stroke-width=".45" stroke-linejoin="round"/>
<path d="M133.77,120.53L128.05,130.63L139.22,149.12L140.69,151.92L141.09,151.92L156.25,143.14L153.86,116.40L148.94,112.94L133.77,120.53Z" fill="#d6bb78" fill-rule="evenodd" stroke="#253d3d" stroke-width=".45" stroke-linejoin="round"/>
<path d="M148.67,108.42L149.07,112.94L153.72,116.40L169.02,110.68L167.64,109.75L167.52,109.38L164.55,109.86L164.50,109.47L165.25,109.47L165.82,108.65L166.96,108.40L167.75,107.60L168.57,107.37L168.73,106.19L168.34,104.97L167.54,104.20L166.77,102.92L166.59,103.37L165.68,103.11L165.50,102.34L164.47,101.25L163.79,101.32L163.35,99.57L163.02,99.24L162.86,99.51L161.88,98.26L160.42,97.75L160.24,97.34L148.67,108.42Z" fill="#c5ad7e" fill-rule="evenodd" stroke="#253d3d" stroke-width=".45" stroke-linejoin="round"/>
<path d="M169.02,110.68L153.86,116.40L156.25,143.00L165.96,141.41L174.61,116.00L174.68,115.34L173.41,115.36L170.73,113.34L169.10,111.18L169.02,110.68Z" fill="#d6bb78" fill-rule="evenodd" stroke="#253d3d" stroke-width=".45" stroke-linejoin="round"/>
<path d="M174.68,115.34L170.89,127.04L170.62,127.31L168.76,133.29L168.49,133.56L166.63,139.55L166.36,139.81L165.96,141.54L187.10,148.72L190.46,144.88L191.68,142.63L193.80,139.80L195.84,136.12L195.85,135.15L196.50,133.69L196.43,133.43L195.76,132.90L195.23,131.96L193.90,130.63L185.39,119.99L182.19,116.40L181.66,115.47L179.80,113.48L179.80,113.15L178.67,113.93L177.95,114.00L176.16,115.27L174.68,115.34Z" fill="#c5ad7e" fill-rule="evenodd" stroke="#253d3d" stroke-width=".45" stroke-linejoin="round"/>
<path d="M179.80,113.48L180.46,114.01L181.00,114.94L181.66,115.47L182.19,116.40L183.52,117.73L184.05,118.66L185.39,119.99L185.92,120.92L186.58,121.46L186.58,121.72L196.50,133.69L199.06,129.32L199.42,128.57L199.53,127.46L200.83,126.28L201.67,124.85L202.31,123.01L203.18,122.11L203.53,121.02L204.26,120.22L204.14,119.20L204.73,115.70L206.23,115.22L206.87,115.51L207.07,115.11L205.92,114.54L205.98,115.12L205.12,115.18L205.84,114.36L205.62,112.40L205.91,111.57L205.48,111.43L205.46,110.67L206.47,108.22L204.10,107.45L203.04,107.79L202.74,108.53L201.57,109.43L199.57,110.05L198.26,110.08L196.64,110.87L195.04,111.13L193.21,110.78L191.33,111.68L189.32,111.86L188.42,111.43L187.67,111.50L184.29,113.58L183.27,113.89L180.18,112.98L179.80,113.15L179.80,113.48Z" fill="#8eb4a4" fill-rule="evenodd" stroke="#253d3d" stroke-width=".45" stroke-linejoin="round"/>
<path d="M186.98,148.72L165.96,141.41L156.25,143.00L140.82,151.92L134.04,172.00L161.80,172.00L161.78,171.48L161.82,171.96L162.05,171.84L162.32,171.15L162.89,170.89L164.75,168.51L170.51,162.45L176.35,157.76L181.26,154.91L186.98,148.72Z" fill="#9caa78" fill-rule="evenodd" stroke="#253d3d" stroke-width=".45" stroke-linejoin="round"/>
</svg>
